<svg width="30" height="30" viewBox="0 0 30 30" fill="none" xmlns="http://www.w3.org/2000/svg">
<rect width="30" height="30" rx="3" fill="white"/>
<path d="M7.65099 20.6198H6.52292C6.38071 20.609 6.24781 20.5451 6.15084 20.4409C6.05388 20.3366 6 20.1996 6 20.0575C6 19.9153 6.05388 19.7783 6.15084 19.6741C6.24781 19.5698 6.38071 19.5059 6.52292 19.4952H7.65099C7.72865 19.4893 7.80669 19.4995 7.88022 19.5251C7.95375 19.5507 8.02118 19.5911 8.07829 19.6439C8.13541 19.6967 8.18097 19.7607 8.21213 19.8319C8.24329 19.903 8.25938 19.9798 8.25938 20.0575C8.25938 20.1351 8.24329 20.2119 8.21213 20.2831C8.18097 20.3542 8.13541 20.4182 8.07829 20.471C8.02118 20.5238 7.95375 20.5642 7.88022 20.5898C7.80669 20.6154 7.72865 20.6256 7.65099 20.6198ZM24 8.25564V21.7444C24 22.3426 23.7616 22.9163 23.3373 23.3393C22.913 23.7624 22.3375 24 21.7374 24H9.32533C8.72524 24 8.14973 23.7624 7.72541 23.3393C7.30109 22.9163 7.06271 22.3426 7.06271 21.7444H7.65099C8.09934 21.7444 8.52933 21.5668 8.84636 21.2508C9.16339 20.9347 9.34148 20.506 9.34148 20.0591C9.34148 19.6121 9.16339 19.1834 8.84636 18.8674C8.52933 18.5513 8.09934 18.3738 7.65099 18.3738H7.08858V11.6294H7.65099C8.08697 11.6104 8.49878 11.4244 8.80055 11.1101C9.10231 10.7959 9.27076 10.3776 9.27076 9.94254C9.27076 9.50749 9.10231 9.08922 8.80055 8.77494C8.49878 8.46067 8.08697 8.27464 7.65099 8.25564H7.08858C7.08858 7.65741 7.32695 7.08368 7.75127 6.66066C8.1756 6.23765 8.75111 6 9.35119 6H21.7535C22.348 6.00847 22.9152 6.24984 23.3326 6.67194C23.7499 7.09404 23.9839 7.66295 23.9838 8.25564H24ZM22.8719 8.25564C22.8719 8.10811 22.8427 7.96203 22.786 7.82576C22.7293 7.6895 22.6461 7.56574 22.5413 7.46157C22.4365 7.3574 22.3121 7.27486 22.1753 7.21869C22.0385 7.16253 21.8918 7.13384 21.7438 7.13426H11.5815V22.869H21.7277C22.0246 22.8656 22.3082 22.7456 22.517 22.535C22.7258 22.3245 22.8428 22.0404 22.8428 21.7444L22.8719 8.25564ZM6.52292 10.5113H7.65099C7.72865 10.5171 7.80669 10.507 7.88022 10.4814C7.95375 10.4558 8.02118 10.4153 8.07829 10.3625C8.13541 10.3097 8.18097 10.2457 8.21213 10.1746C8.24329 10.1034 8.25938 10.0266 8.25938 9.94898C8.25938 9.87134 8.24329 9.79453 8.21213 9.72337C8.18097 9.65221 8.13541 9.58824 8.07829 9.53545C8.02118 9.48266 7.95375 9.4422 7.88022 9.4166C7.80669 9.391 7.72865 9.38082 7.65099 9.38668H6.52292C6.38071 9.39742 6.24781 9.46132 6.15084 9.56559C6.05388 9.66986 6 9.8068 6 9.94898C6 10.0912 6.05388 10.2281 6.15084 10.3324C6.24781 10.4366 6.38071 10.5005 6.52292 10.5113ZM21.1814 8.25564H13.272C13.1298 8.26638 12.9969 8.33029 12.8999 8.43455C12.8029 8.53882 12.7491 8.67575 12.7491 8.81794C12.7491 8.96012 12.8029 9.09706 12.8999 9.20133C12.9969 9.30559 13.1298 9.36949 13.272 9.38023H21.1653C21.3075 9.36949 21.4404 9.30559 21.5373 9.20133C21.6343 9.09706 21.6882 8.96012 21.6882 8.81794C21.6882 8.67575 21.6343 8.53882 21.5373 8.43455C21.4404 8.33029 21.3075 8.26638 21.1653 8.25564H21.1814ZM21.1814 10.5113H13.272C13.1298 10.522 12.9969 10.5859 12.8999 10.6902C12.8029 10.7945 12.7491 10.9314 12.7491 11.0736C12.7491 11.2158 12.8029 11.3527 12.8999 11.457C12.9969 11.5612 13.1298 11.6251 13.272 11.6359H21.1653C21.3075 11.6251 21.4404 11.5612 21.5373 11.457C21.6343 11.3527 21.6882 11.2158 21.6882 11.0736C21.6882 10.9314 21.6343 10.7945 21.5373 10.6902C21.4404 10.5859 21.3075 10.522 21.1653 10.5113H21.1814ZM21.1814 12.7669H13.272C13.1228 12.7669 12.9797 12.826 12.8743 12.9311C12.7688 13.0363 12.7096 13.1789 12.7096 13.3276C12.7096 13.4763 12.7688 13.6189 12.8743 13.7241C12.9797 13.8292 13.1228 13.8883 13.272 13.8883H21.1653C21.3144 13.8883 21.4575 13.8292 21.5629 13.7241C21.6684 13.6189 21.7277 13.4763 21.7277 13.3276C21.7277 13.1789 21.6684 13.0363 21.5629 12.9311C21.4575 12.826 21.3144 12.7669 21.1653 12.7669H21.1814ZM21.1814 15.0226H13.272C13.1298 15.0333 12.9969 15.0972 12.8999 15.2015C12.8029 15.3057 12.7491 15.4427 12.7491 15.5849C12.7491 15.727 12.8029 15.864 12.8999 15.9682C12.9969 16.0725 13.1298 16.1364 13.272 16.1471H21.1653C21.3075 16.1364 21.4404 16.0725 21.5373 15.9682C21.6343 15.864 21.6882 15.727 21.6882 15.5849C21.6882 15.4427 21.6343 15.3057 21.5373 15.2015C21.4404 15.0972 21.3075 15.0333 21.1653 15.0226H21.1814ZM21.1814 17.2782H13.272C13.1298 17.2889 12.9969 17.3528 12.8999 17.4571C12.8029 17.5614 12.7491 17.6983 12.7491 17.8405C12.7491 17.9827 12.8029 18.1196 12.8999 18.2239C12.9969 18.3281 13.1298 18.392 13.272 18.4028H21.1653C21.3075 18.392 21.4404 18.3281 21.5373 18.2239C21.6343 18.1196 21.6882 17.9827 21.6882 17.8405C21.6882 17.6983 21.6343 17.5614 21.5373 17.4571C21.4404 17.3528 21.3075 17.2889 21.1653 17.2782H21.1814ZM17.7972 19.5338H13.272C13.1298 19.5446 12.9969 19.6085 12.8999 19.7127C12.8029 19.817 12.7491 19.9539 12.7491 20.0961C12.7491 20.2383 12.8029 20.3753 12.8999 20.4795C12.9969 20.5838 13.1298 20.6477 13.272 20.6584H17.7972C17.8749 20.6643 17.9529 20.6541 18.0264 20.6285C18.1 20.6029 18.1674 20.5624 18.2245 20.5097C18.2816 20.4569 18.3272 20.3929 18.3583 20.3217C18.3895 20.2506 18.4056 20.1738 18.4056 20.0961C18.4056 20.0185 18.3895 19.9417 18.3583 19.8705C18.3272 19.7994 18.2816 19.7354 18.2245 19.6826C18.1674 19.6298 18.1 19.5894 18.0264 19.5638C17.9529 19.5382 17.8749 19.528 17.7972 19.5338Z" fill="#B3BAD3"/>
</svg>
