<svg width="445" height="445" viewBox="0 0 445 445" fill="none" xmlns="http://www.w3.org/2000/svg">
<path d="M222.5 445C99.6166 445 0 345.383 0 222.5C0 99.6166 99.6166 0 222.5 0C345.383 0 445 99.6166 445 222.5C445 345.383 345.383 445 222.5 445Z" fill="rgb(182, 182, 182)"/>
<path fill-rule="evenodd" clip-rule="evenodd" d="M204.539 247.166L257.416 328.995H326.412L259.396 241.805C274.665 238.231 286.164 231.459 293.893 221.489C301.811 211.331 305.77 198.163 305.77 181.985C305.77 172.956 304.262 164.491 301.245 156.59C298.418 148.69 294.082 141.729 288.238 135.71C282.583 129.69 275.325 124.987 266.465 121.601C257.605 118.027 247.237 116.24 235.36 116.24H149.116V328.995H204.539V247.166ZM224.397 158.454C238.774 158.454 250.428 169.793 250.428 183.782C250.428 197.77 238.774 209.109 224.397 209.109C210.02 209.109 198.365 197.77 198.365 183.782C198.365 169.793 210.02 158.454 224.397 158.454Z" fill="white"/>
</svg>
